<?xml version="1.0" standalone="no"?>
<!DOCTYPE svg PUBLIC "-//W3C//DTD SVG 20010904//EN"
 "http://www.w3.org/TR/2001/REC-SVG-20010904/DTD/svg10.dtd">
<svg version="1.0" xmlns="http://www.w3.org/2000/svg"
 width="300.000000pt" height="300.000000pt" viewBox="0 0 300.000000 300.000000"
 preserveAspectRatio="xMidYMid meet">
<metadata>
Created by potrace 1.10, written by Peter Selinger 2001-2011
</metadata>
<g transform="translate(0.000000,300.000000) scale(0.050000,-0.050000)"
fill="#000000" stroke="none">
<path d="M5907 5970 c-6 -16 -20 -25 -30 -18 -10 6 -31 1 -46 -11 -19 -16 -31
-16 -40 -2 -8 12 -24 21 -37 20 -13 0 -6 -11 16 -24 44 -26 168 -47 146 -24
-8 8 -6 31 5 52 11 20 15 37 9 37 -6 0 -16 -13 -23 -30z"/>
<path d="M2620 5949 c-2196 -282 -3318 -2766 -2085 -4618 1230 -1847 4054
-1697 5092 270 1128 2137 -614 4655 -3007 4348z m770 -250 c455 -76 795 -201
1126 -412 59 -37 116 -62 128 -54 12 7 17 4 10 -7 -7 -11 44 -66 113 -122 984
-799 1270 -2225 680 -3390 -64 -127 -217 -361 -257 -394 -17 -14 -30 -34 -30
-44 0 -42 -402 -413 -577 -533 -326 -223 -636 -351 -1135 -467 -959 -223
-2206 328 -2771 1224 -45 72 -92 137 -104 145 -13 8 -16 15 -8 15 9 0 -19 70
-62 155 -667 1337 -124 2925 1237 3614 276 140 498 206 970 289 173 30 431 23
680 -19z"/>
<path d="M2120 4628 c-38 -4 -164 -17 -280 -29 -752 -79 -1119 -292 -1120
-650 0 -167 188 -433 347 -491 90 -32 93 -72 11 -149 -250 -238 -165 -591 194
-801 35 -21 33 -26 -30 -80 -223 -187 -240 -433 -46 -635 148 -153 192 -159
635 -80 773 136 1473 47 2101 -269 312 -157 490 -109 620 166 77 162 60 277
-65 442 -63 83 -61 88 44 88 172 0 349 144 417 340 62 177 25 299 -146 488
-118 130 -121 138 -47 110 392 -149 798 382 568 744 -206 324 -1030 651 -1943
769 -234 30 -1096 56 -1260 37z m770 -228 c1137 -71 2240 -441 2302 -773 53
-282 -212 -403 -526 -241 -884 456 -2267 587 -3292 310 -469 -127 -641 406
-175 543 298 88 738 154 1111 167 88 3 187 8 220 9 33 2 195 -4 360 -15z m314
-1068 c713 -113 1488 -435 1558 -647 78 -238 -166 -384 -406 -242 -751 445
-1997 586 -2882 327 -251 -74 -443 177 -282 368 162 193 1316 304 2012 194z
m-94 -965 c440 -63 1100 -308 1242 -461 66 -71 66 -190 0 -256 -93 -93 -132
-87 -419 57 -617 309 -1336 395 -2123 253 -414 -75 -434 -75 -496 -1 -133 158
-43 294 226 347 572 112 1077 131 1570 61z"/>
<path d="M5950 5880 c-7 -12 -23 -15 -36 -7 -18 10 -18 7 0 -13 18 -20 14 -33
-20 -62 -39 -33 -40 -37 -8 -37 21 -1 31 8 23 21 -9 13 0 19 23 15 20 -4 43
-30 52 -57 l15 -50 -7 50 c-4 28 -14 67 -23 88 -11 27 -9 34 7 24 16 -9 19 -3
12 17 -14 36 -21 38 -38 11z"/>
</g>
</svg>
