<?xml version="1.0" encoding="UTF-8"?>
<svg version="1.1" xmlns="http://www.w3.org/2000/svg" width="800px" height="800px">
<path d="M0 0 C2.45937305 0.00534435 4.91856229 0.00003648 7.37792969 -0.00634766 C20.79406511 -0.01583262 33.0948494 0.75159423 46.09667969 4.38037109 C47.18207031 4.66783203 48.26746094 4.95529297 49.38574219 5.25146484 C59.68392611 8.06564637 69.38766676 12.07579815 78.90917969 16.88037109 C79.5744165 17.21544678 80.23965332 17.55052246 80.92504883 17.89575195 C95.02788244 25.10933721 107.37594149 33.54940781 119.03027344 44.31005859 C120.96581168 46.17145727 120.96581168 46.17145727 123.09667969 47.13037109 C123.09667969 47.79037109 123.09667969 48.45037109 123.09667969 49.13037109 C123.75667969 49.13037109 124.41667969 49.13037109 125.09667969 49.13037109 C125.09667969 49.79037109 125.09667969 50.45037109 125.09667969 51.13037109 C125.75667969 51.13037109 126.41667969 51.13037109 127.09667969 51.13037109 C127.09667969 51.79037109 127.09667969 52.45037109 127.09667969 53.13037109 C128.08667969 53.46037109 129.07667969 53.79037109 130.09667969 54.13037109 C135.09667969 59.59548737 135.09667969 59.59548737 135.09667969 62.13037109 C135.75667969 62.13037109 136.41667969 62.13037109 137.09667969 62.13037109 C138.40600586 63.59228516 138.40600586 63.59228516 139.88964844 65.64599609 C140.7061084 66.77110596 140.7061084 66.77110596 141.5390625 67.91894531 C142.11495117 68.73121582 142.69083984 69.54348633 143.28417969 70.38037109 C143.87424805 71.20939941 144.46431641 72.03842773 145.07226562 72.89257812 C163.4411212 98.94636307 176.21905821 130.90858541 176.26464844 163.13427734 C176.26797684 163.97522446 176.27130524 164.81617157 176.2747345 165.68260193 C176.27976964 167.45498107 176.28214389 169.22736958 176.28198242 170.99975586 C176.28415393 173.66129926 176.30230498 176.32241722 176.32128906 178.98388672 C176.36870515 192.86353109 175.31986712 206.18430111 171.59667969 219.63037109 C171.21636597 221.00733154 171.21636597 221.00733154 170.82836914 222.41210938 C164.38479868 244.59723416 153.72330018 265.29851745 139.09667969 283.13037109 C138.16776466 284.28749822 137.23938665 285.44505664 136.31152344 286.60302734 C131.32448731 292.75261488 131.32448731 292.75261488 129.09667969 295.13037109 C128.43667969 295.13037109 127.77667969 295.13037109 127.09667969 295.13037109 C126.43667969 296.45037109 125.77667969 297.77037109 125.09667969 299.13037109 C124.43667969 299.13037109 123.77667969 299.13037109 123.09667969 299.13037109 C123.09667969 299.79037109 123.09667969 300.45037109 123.09667969 301.13037109 C122.43667969 301.13037109 121.77667969 301.13037109 121.09667969 301.13037109 C121.09667969 301.79037109 121.09667969 302.45037109 121.09667969 303.13037109 C95.43674899 327.05316915 62.57025307 341.98340364 28.09667969 347.13037109 C26.77385986 347.38947266 26.77385986 347.38947266 25.42431641 347.65380859 C21.33167689 348.23992982 17.34647619 348.29261959 13.21777344 348.29833984 C11.9449929 348.30333244 11.9449929 348.30333244 10.64649963 348.3084259 C8.85377541 348.31347305 7.06104186 348.31583491 5.26831055 348.31567383 C2.56705594 348.31784467 -0.13377929 348.33598065 -2.83496094 348.35498047 C-12.3764621 348.38729151 -21.51932917 348.06327831 -30.90332031 346.13037109 C-31.86181885 345.93838135 -32.82031738 345.7463916 -33.80786133 345.54858398 C-64.10720413 339.12768447 -89.06172199 325.56148177 -112.90332031 306.13037109 C-113.54914063 305.62119141 -114.19496094 305.11201172 -114.86035156 304.58740234 C-116.24590106 303.48090965 -117.58189304 302.31270076 -118.90332031 301.13037109 C-118.90332031 300.47037109 -118.90332031 299.81037109 -118.90332031 299.13037109 C-119.56332031 299.13037109 -120.22332031 299.13037109 -120.90332031 299.13037109 C-120.90332031 298.47037109 -120.90332031 297.81037109 -120.90332031 297.13037109 C-121.56332031 297.13037109 -122.22332031 297.13037109 -122.90332031 297.13037109 C-122.90332031 296.47037109 -122.90332031 295.81037109 -122.90332031 295.13037109 C-123.56332031 295.13037109 -124.22332031 295.13037109 -124.90332031 295.13037109 C-126.34144704 293.56096308 -127.70362081 291.92163075 -129.02832031 290.25537109 C-130.23681641 288.73943359 -130.23681641 288.73943359 -131.46972656 287.19287109 C-132.67435547 285.67693359 -132.67435547 285.67693359 -133.90332031 284.13037109 C-134.93779297 282.89287109 -134.93779297 282.89287109 -135.99316406 281.63037109 C-151.37417628 263.11224153 -161.0854295 240.44601391 -167.71582031 217.50537109 C-168.1693689 215.96828491 -168.1693689 215.96828491 -168.63208008 214.40014648 C-172.15987929 201.75356669 -172.06784578 189.02537274 -172.03369141 176.00073242 C-172.02832053 173.56797072 -172.03367636 171.13539294 -172.04003906 168.70263672 C-172.05124403 154.50576676 -170.99664903 141.83627229 -166.90332031 128.13037109 C-166.60370392 127.11373886 -166.60370392 127.11373886 -166.29803467 126.0765686 C-158.96648056 101.34319921 -147.38838852 79.94920309 -130.90332031 60.13037109 C-130.25878906 59.33244141 -129.61425781 58.53451172 -128.95019531 57.71240234 C-127.65587771 56.13848701 -126.28991663 54.62362866 -124.90332031 53.13037109 C-124.24332031 53.13037109 -123.58332031 53.13037109 -122.90332031 53.13037109 C-122.24332031 51.81037109 -121.58332031 50.49037109 -120.90332031 49.13037109 C-120.24332031 49.13037109 -119.58332031 49.13037109 -118.90332031 49.13037109 C-118.57332031 48.14037109 -118.24332031 47.15037109 -117.90332031 46.13037109 C-114.43847537 42.89304881 -110.63953389 40.04711775 -106.90332031 37.13037109 C-105.48212891 36.00501953 -105.48212891 36.00501953 -104.03222656 34.85693359 C-83.68759644 19.12228072 -61.37347957 9.08704296 -36.40332031 3.31787109 C-35.50806641 3.11081543 -34.6128125 2.90375977 -33.69042969 2.69042969 C-22.44700685 0.21345439 -11.46347149 -0.02960372 0 0 Z M-111.96582031 108.56787109 C-115.09608328 112.7078963 -116.12076157 115.45950814 -115.77832031 120.63037109 C-115.04663773 125.81240542 -112.79087111 128.36865701 -109.02832031 131.88037109 C-103.4062834 135.18745163 -98.46255417 133.75592654 -92.50146484 132.23657227 C-90.8750708 131.81275269 -90.8750708 131.81275269 -89.21582031 131.38037109 C-75.53985906 128.00950819 -61.9152053 126.34671152 -47.90332031 125.13037109 C-46.86498047 125.0353833 -45.82664062 124.94039551 -44.75683594 124.8425293 C-16.99158813 122.37912994 11.84915839 124.43205991 39.09667969 130.13037109 C39.90766113 130.2929541 40.71864258 130.45553711 41.55419922 130.62304688 C55.67482432 133.45871071 69.16030353 137.51981084 82.59667969 142.69287109 C83.32628906 142.97364502 84.05589844 143.25441895 84.80761719 143.54370117 C91.36403118 146.1276908 97.57200816 149.11478908 103.53417969 152.88037109 C108.12813842 155.44665149 111.91788066 156.00001848 117.09667969 155.13037109 C121.17895687 153.82096143 123.2180497 152.34725918 125.40917969 148.75537109 C128.11992045 142.93229833 128.41210658 140.1441449 126.27636719 134.19287109 C116.27198637 116.7017682 81.79877724 109.47966028 63.65869141 104.45507812 C21.23921558 93.0521734 -74.03861333 78.38091044 -111.96582031 108.56787109 Z M-100.90332031 166.13037109 C-103.83319465 169.42647972 -104.56486546 172.63278964 -104.37988281 177.06396484 C-103.483121 180.95238287 -101.1834603 183.91579517 -97.90332031 186.13037109 C-91.0780988 188.16146919 -84.8312046 185.98410196 -78.09082031 184.31787109 C-67.35339574 181.79925149 -56.89606648 179.92195401 -45.90332031 179.13037109 C-45.20142578 179.0754248 -44.49953125 179.02047852 -43.77636719 178.96386719 C-30.72616481 177.95381728 -18.22576186 178.01283478 -5.21582031 179.50537109 C-3.98573242 179.64330078 -2.75564453 179.78123047 -1.48828125 179.92333984 C0.94254541 180.19748841 3.37306112 180.47441133 5.80322266 180.75439453 C8.59904751 181.07356208 11.39568644 181.37641137 14.19433594 181.66943359 C15.57853084 181.82235417 16.96265422 181.9759246 18.34667969 182.13037109 C20.05597656 182.31599609 20.05597656 182.31599609 21.79980469 182.50537109 C25.08289263 183.12775743 27.86696699 184.1169752 30.95800781 185.34082031 C33.18430848 186.16272172 35.40112408 186.78998144 37.69824219 187.38427734 C53.52107287 191.48100706 68.33580476 197.51595228 82.47167969 205.75537109 C87.02073682 208.32879604 89.90314241 208.93626481 95.09667969 208.13037109 C99.26175393 206.37178419 101.30550437 204.27835605 103.09667969 200.13037109 C103.48304981 196.52424997 103.40639609 193.97692926 102.15917969 190.56787109 C95.43823417 182.62493548 84.33406318 178.49992179 75.09667969 174.13037109 C73.96101562 173.59154297 72.82535156 173.05271484 71.65527344 172.49755859 C61.7663131 168.03760246 51.54107692 164.99608068 41.09667969 162.13037109 C40.27312988 161.89930664 39.44958008 161.66824219 38.60107422 161.43017578 C0.64047681 150.93602605 -65.66544347 144.21984477 -100.90332031 166.13037109 Z M-72.90332031 214.13037109 C-74.27230469 214.3459668 -74.27230469 214.3459668 -75.66894531 214.56591797 C-86.54898784 216.14210868 -86.54898784 216.14210868 -95.77832031 221.81787109 C-97.49122766 225.33884731 -96.94394854 228.42510392 -95.90332031 232.13037109 C-94.02718104 234.77402188 -93.04608188 235.0827839 -89.90332031 236.13037109 C-85.28685532 236.33203485 -81.31474593 235.9207984 -76.84082031 234.81787109 C-74.19684665 234.24309421 -71.55299321 233.67743982 -68.90332031 233.13037109 C-68.21077148 232.98631836 -67.51822266 232.84226563 -66.8046875 232.69384766 C-53.02602564 229.98480179 -39.20588255 229.80978847 -25.21582031 229.75537109 C-23.8513829 229.74372421 -23.8513829 229.74372421 -22.4593811 229.73184204 C-6.28875566 229.62317264 9.42573022 231.15062246 25.03417969 235.56787109 C26.21850586 235.89525269 26.21850586 235.89525269 27.42675781 236.22924805 C28.97063075 236.66089393 30.51291747 237.09827135 32.05322266 237.54248047 C33.79306571 238.04302313 35.53994285 238.51900989 37.28808594 238.98974609 C46.47321204 241.69801693 54.73015961 246.46657538 63.08886719 251.04882812 C63.75144531 251.4057373 64.41402344 251.76264648 65.09667969 252.13037109 C65.78117188 252.5001709 66.46566406 252.8699707 67.17089844 253.25097656 C69.96335545 254.52613252 72.06051573 254.44018374 75.09667969 254.13037109 C78.94615321 252.64307451 79.87830874 251.61260693 81.59667969 247.81787109 C82.21196284 243.28015784 81.81064752 241.80220992 79.09667969 238.13037109 C76.43296037 236.14563905 74.01621892 234.66898958 71.09667969 233.13037109 C69.93523437 232.51033203 68.77378906 231.89029297 67.57714844 231.25146484 C38.45796097 216.03613229 7.44332375 209.93934511 -25.27832031 209.81787109 C-25.98665009 209.81492035 -26.69497986 209.8119696 -27.42477417 209.80892944 C-42.82809109 209.79453041 -57.70365815 211.61280918 -72.90332031 214.13037109 Z " fill="#010101" transform="translate(171.9033203125,-0.13037109375)"/>
<path d="M0 0 C2.45937305 0.00534435 4.91856229 0.00003648 7.37792969 -0.00634766 C20.79406511 -0.01583262 33.0948494 0.75159423 46.09667969 4.38037109 C47.18207031 4.66783203 48.26746094 4.95529297 49.38574219 5.25146484 C59.68392611 8.06564637 69.38766676 12.07579815 78.90917969 16.88037109 C79.5744165 17.21544678 80.23965332 17.55052246 80.92504883 17.89575195 C95.02788244 25.10933721 107.37594149 33.54940781 119.03027344 44.31005859 C120.96581168 46.17145727 120.96581168 46.17145727 123.09667969 47.13037109 C123.09667969 47.79037109 123.09667969 48.45037109 123.09667969 49.13037109 C123.75667969 49.13037109 124.41667969 49.13037109 125.09667969 49.13037109 C124.76667969 49.79037109 124.43667969 50.45037109 124.09667969 51.13037109 C123.14921875 50.34726563 123.14921875 50.34726563 122.18261719 49.54833984 C119.72226789 47.52404669 117.2554338 45.5080736 114.78222656 43.49951172 C113.65725311 42.58571521 112.53355591 41.6703453 111.41113281 40.75341797 C94.04504363 26.60990203 75.31694147 16.67026485 54.04443359 9.76660156 C52.28748474 9.19269724 50.54091998 8.58723605 48.79589844 7.97802734 C31.12874819 2.26155016 11.8322259 1.48763012 -6.59814453 2.06103516 C-8.55469798 2.1198851 -10.51233052 2.14094509 -12.46972656 2.15380859 C-52.09650303 3.4179757 -90.53157126 23.66797599 -118.45996094 50.73828125 C-119.8051372 52.03567554 -121.17371684 53.30868267 -122.54394531 54.57958984 C-132.3768644 63.93323143 -140.38118846 75.25375248 -146.90332031 87.13037109 C-147.2460498 87.75169922 -147.5887793 88.37302734 -147.94189453 89.01318359 C-156.16907305 104.00103291 -161.89753007 118.51098286 -165.90332031 135.13037109 C-166.21527344 136.39751953 -166.52722656 137.66466797 -166.84863281 138.97021484 C-171.64752461 159.67999547 -171.12652541 182.19251384 -167.90332031 203.13037109 C-167.731875 204.24669922 -167.56042969 205.36302734 -167.38378906 206.51318359 C-161.59341413 237.5197074 -146.80526192 269.58627906 -124.07910156 291.90380859 C-121.90332031 294.13037109 -121.90332031 294.13037109 -121.90332031 296.13037109 C-121.319375 296.38044922 -120.73542969 296.63052734 -120.13378906 296.88818359 C-117.60274351 298.29776763 -116.15553961 299.85712214 -114.21582031 302.00537109 C-97.76232753 318.92582444 -74.0053204 330.66222159 -51.90332031 338.13037109 C-51.20537354 338.37787109 -50.50742676 338.62537109 -49.78833008 338.88037109 C-44.2912128 340.79429361 -38.80205617 342.14761687 -33.09082031 343.25537109 C-31.7629248 343.51302246 -31.7629248 343.51302246 -30.40820312 343.77587891 C13.25735887 352.01617368 60.92335376 342.5575546 97.94335938 317.90039062 C107.4101243 311.42094848 115.86184306 304.09521307 124.09667969 296.13037109 C124.83402344 295.44458984 125.57136719 294.75880859 126.33105469 294.05224609 C132.32914954 288.3420598 137.24932932 281.81364391 142.09667969 275.13037109 C142.51739746 274.55399902 142.93811523 273.97762695 143.37158203 273.38378906 C153.81234762 258.91466493 160.9720018 242.97549063 166.47216797 226.05126953 C167.06034796 224.24212168 167.66963323 222.43987451 168.28027344 220.63818359 C170.7137994 213.20389549 172.1979712 205.89710441 173.09667969 198.13037109 C173.20882813 197.18548828 173.32097656 196.24060547 173.43652344 195.26708984 C175.99900093 168.76475417 174.02171505 142.27366101 165.09667969 117.13037109 C164.74283203 116.12055176 164.74283203 116.12055176 164.38183594 115.09033203 C158.07996949 97.43976541 148.67691937 80.44849216 136.60058594 66.12646484 C135.09667969 64.13037109 135.09667969 64.13037109 135.09667969 62.13037109 C135.75667969 62.13037109 136.41667969 62.13037109 137.09667969 62.13037109 C138.40600586 63.59228516 138.40600586 63.59228516 139.88964844 65.64599609 C140.7061084 66.77110596 140.7061084 66.77110596 141.5390625 67.91894531 C142.11495117 68.73121582 142.69083984 69.54348633 143.28417969 70.38037109 C143.87424805 71.20939941 144.46431641 72.03842773 145.07226562 72.89257812 C163.4411212 98.94636307 176.21905821 130.90858541 176.26464844 163.13427734 C176.26797684 163.97522446 176.27130524 164.81617157 176.2747345 165.68260193 C176.27976964 167.45498107 176.28214389 169.22736958 176.28198242 170.99975586 C176.28415393 173.66129926 176.30230498 176.32241722 176.32128906 178.98388672 C176.36870515 192.86353109 175.31986712 206.18430111 171.59667969 219.63037109 C171.21636597 221.00733154 171.21636597 221.00733154 170.82836914 222.41210938 C164.38479868 244.59723416 153.72330018 265.29851745 139.09667969 283.13037109 C138.16776466 284.28749822 137.23938665 285.44505664 136.31152344 286.60302734 C131.32448731 292.75261488 131.32448731 292.75261488 129.09667969 295.13037109 C128.43667969 295.13037109 127.77667969 295.13037109 127.09667969 295.13037109 C126.43667969 296.45037109 125.77667969 297.77037109 125.09667969 299.13037109 C124.43667969 299.13037109 123.77667969 299.13037109 123.09667969 299.13037109 C123.09667969 299.79037109 123.09667969 300.45037109 123.09667969 301.13037109 C122.43667969 301.13037109 121.77667969 301.13037109 121.09667969 301.13037109 C121.09667969 301.79037109 121.09667969 302.45037109 121.09667969 303.13037109 C95.43674899 327.05316915 62.57025307 341.98340364 28.09667969 347.13037109 C26.77385986 347.38947266 26.77385986 347.38947266 25.42431641 347.65380859 C21.33167689 348.23992982 17.34647619 348.29261959 13.21777344 348.29833984 C11.9449929 348.30333244 11.9449929 348.30333244 10.64649963 348.3084259 C8.85377541 348.31347305 7.06104186 348.31583491 5.26831055 348.31567383 C2.56705594 348.31784467 -0.13377929 348.33598065 -2.83496094 348.35498047 C-12.3764621 348.38729151 -21.51932917 348.06327831 -30.90332031 346.13037109 C-31.86181885 345.93838135 -32.82031738 345.7463916 -33.80786133 345.54858398 C-64.10720413 339.12768447 -89.06172199 325.56148177 -112.90332031 306.13037109 C-113.54914063 305.62119141 -114.19496094 305.11201172 -114.86035156 304.58740234 C-116.24590106 303.48090965 -117.58189304 302.31270076 -118.90332031 301.13037109 C-118.90332031 300.47037109 -118.90332031 299.81037109 -118.90332031 299.13037109 C-119.56332031 299.13037109 -120.22332031 299.13037109 -120.90332031 299.13037109 C-120.90332031 298.47037109 -120.90332031 297.81037109 -120.90332031 297.13037109 C-121.56332031 297.13037109 -122.22332031 297.13037109 -122.90332031 297.13037109 C-122.90332031 296.47037109 -122.90332031 295.81037109 -122.90332031 295.13037109 C-123.56332031 295.13037109 -124.22332031 295.13037109 -124.90332031 295.13037109 C-126.34144704 293.56096308 -127.70362081 291.92163075 -129.02832031 290.25537109 C-130.23681641 288.73943359 -130.23681641 288.73943359 -131.46972656 287.19287109 C-132.67435547 285.67693359 -132.67435547 285.67693359 -133.90332031 284.13037109 C-134.93779297 282.89287109 -134.93779297 282.89287109 -135.99316406 281.63037109 C-151.37417628 263.11224153 -161.0854295 240.44601391 -167.71582031 217.50537109 C-168.1693689 215.96828491 -168.1693689 215.96828491 -168.63208008 214.40014648 C-172.15987929 201.75356669 -172.06784578 189.02537274 -172.03369141 176.00073242 C-172.02832053 173.56797072 -172.03367636 171.13539294 -172.04003906 168.70263672 C-172.05124403 154.50576676 -170.99664903 141.83627229 -166.90332031 128.13037109 C-166.60370392 127.11373886 -166.60370392 127.11373886 -166.29803467 126.0765686 C-158.96648056 101.34319921 -147.38838852 79.94920309 -130.90332031 60.13037109 C-130.25878906 59.33244141 -129.61425781 58.53451172 -128.95019531 57.71240234 C-127.65587771 56.13848701 -126.28991663 54.62362866 -124.90332031 53.13037109 C-124.24332031 53.13037109 -123.58332031 53.13037109 -122.90332031 53.13037109 C-122.24332031 51.81037109 -121.58332031 50.49037109 -120.90332031 49.13037109 C-120.24332031 49.13037109 -119.58332031 49.13037109 -118.90332031 49.13037109 C-118.57332031 48.14037109 -118.24332031 47.15037109 -117.90332031 46.13037109 C-114.43847537 42.89304881 -110.63953389 40.04711775 -106.90332031 37.13037109 C-105.48212891 36.00501953 -105.48212891 36.00501953 -104.03222656 34.85693359 C-83.68759644 19.12228072 -61.37347957 9.08704296 -36.40332031 3.31787109 C-35.50806641 3.11081543 -34.6128125 2.90375977 -33.69042969 2.69042969 C-22.44700685 0.21345439 -11.46347149 -0.02960372 0 0 Z " fill="#DCDCDC" transform="translate(171.9033203125,-0.13037109375)"/>
<path d="M0 0 C0.65258789 0.33563965 1.30517578 0.6712793 1.97753906 1.01708984 C6.86784872 3.74072425 8.77781608 6.3930964 11 11.375 C11.55094073 15.24396581 10.89896422 18.81013636 8.9453125 22.2109375 C6.71370596 25.05242409 4.48975834 27.37792619 1 28.375 C-6.08878849 29.03641276 -10.17329801 27.19307582 -16.25 23.6875 C-17.93950259 22.75824922 -19.63090622 21.83244616 -21.32421875 20.91015625 C-22.13294434 20.46687988 -22.94166992 20.02360352 -23.77490234 19.56689453 C-39.76157044 11.00348509 -58.36400167 6.17980987 -76 2.375 C-76.72155273 2.21902344 -77.44310547 2.06304687 -78.18652344 1.90234375 C-97.08230798 -1.965673 -116.78773701 -1.84616226 -136 -2.625 C-136 -2.955 -136 -3.285 -136 -3.625 C-134.22977479 -3.7980063 -132.45876206 -3.96295315 -130.6875 -4.125 C-129.70136719 -4.2178125 -128.71523437 -4.310625 -127.69921875 -4.40625 C-118.1094376 -4.97333315 -108.84765506 -4.34377095 -99.3125 -3.25 C-98.08748779 -3.11279541 -96.86247559 -2.97559082 -95.6003418 -2.83422852 C-93.17463314 -2.56089342 -90.74924467 -2.28469864 -88.32421875 -2.00537109 C-85.43602929 -1.67489231 -82.54684689 -1.35928391 -79.65625 -1.05078125 C-78.2082417 -0.88883807 -76.76031541 -0.72615866 -75.3125 -0.5625 C-74.09175781 -0.42714844 -72.87101562 -0.29179687 -71.61328125 -0.15234375 C-70.75089844 0.02167969 -69.88851562 0.19570312 -69 0.375 C-68.67 1.035 -68.34 1.695 -68 2.375 C-66.37515958 2.63403253 -64.74775879 2.88161808 -63.11376953 3.07470703 C-45.0449587 5.64165521 -27.25709909 13.88847263 -11.625 23 C-7.09822743 25.57219501 -4.16968008 26.10056913 1 25.375 C3.95224902 24.49730435 4.81803152 23.6024606 6.75 21.1875 C8.32923797 17.63421457 8.41323619 15.23187108 8 11.375 C1.48572796 -2.11884922 -22.73289306 -8.91535852 -35.75146484 -13.61914062 C-41.43864525 -15.5317775 -47.19681772 -17.10894776 -53 -18.625 C-53.80759766 -18.84881348 -54.61519531 -19.07262695 -55.44726562 -19.30322266 C-95.72246404 -30.45280896 -154.65564415 -34.21114022 -193.38427734 -15.80053711 C-195.4450814 -14.30117604 -196.09578529 -12.99342913 -197 -10.625 C-197.51966218 -6.02227783 -197.72673512 -2.99517295 -194.9375 0.8125 C-191.56071908 3.75820251 -189.35447789 4.45608632 -185 4.375 C-180.7136647 3.66796396 -176.52616806 2.61200426 -172.3125 1.5625 C-160.8808302 -1.14988885 -149.71331426 -2.85034524 -138 -3.625 C-138.33 -2.965 -138.66 -2.305 -139 -1.625 C-141.66796875 -1.0625 -141.66796875 -1.0625 -145.1875 -0.625 C-146.46109375 -0.45742187 -147.7346875 -0.28984375 -149.046875 -0.1171875 C-151.53613161 0.19273971 -154.02567752 0.50036059 -156.515625 0.8046875 C-162.75575478 1.61675918 -168.70211118 2.76430012 -174.75 4.5 C-188.42518262 8.26316033 -188.42518262 8.26316033 -193.87109375 5.38671875 C-197.42447651 2.63433834 -199.68641135 -0.34842788 -200.30078125 -4.80859375 C-200.32551063 -9.56487874 -200.22536313 -12.86207634 -197 -16.625 C-192.06920289 -20.50358651 -187.31463471 -21.86587917 -181.25 -23.25 C-180.40695313 -23.45367187 -179.56390625 -23.65734375 -178.6953125 -23.8671875 C-118.56137694 -38.21106204 -54.28152224 -29.07490143 0 0 Z " fill="#DFDFDF" transform="translate(266,181.625)"/>
<path d="M0 0 C-4.58939729 1.48254252 -7.96011748 -0.14519047 -12.3125 -1.75 C-20.48548172 -4.62020453 -28.44646674 -6.5502486 -37 -8 C-38.04800781 -8.19335938 -39.09601563 -8.38671875 -40.17578125 -8.5859375 C-52.17987228 -10.73452967 -64.19556993 -11.26728576 -76.375 -11.3125 C-77.08332977 -11.31545074 -77.79165955 -11.31840149 -78.52145386 -11.32144165 C-93.92477077 -11.33584069 -108.80033784 -9.51756191 -124 -7 C-125.36898437 -6.7844043 -125.36898437 -6.7844043 -126.765625 -6.56445312 C-136.3952593 -5.24062485 -136.3952593 -5.24062485 -145 -1 C-147.40456185 2.60684278 -147.25467432 4.01674907 -146.59765625 8.125 C-146.09113833 10.23859431 -146.09113833 10.23859431 -143.875 12 C-138.47438731 13.87847398 -133.37887885 13.02892715 -127.9375 11.6875 C-125.29352634 11.11272312 -122.6496729 10.54706872 -120 10 C-119.30745117 9.85594727 -118.61490234 9.71189453 -117.90136719 9.56347656 C-104.12270533 6.8544307 -90.30256223 6.67941737 -76.3125 6.625 C-74.94806259 6.61335312 -74.94806259 6.61335312 -73.55606079 6.60147095 C-57.38543535 6.49280155 -41.67094947 8.02025136 -26.0625 12.4375 C-24.87817383 12.76488159 -24.87817383 12.76488159 -23.66992188 13.09887695 C-22.12604894 13.53052284 -20.58376222 13.96790026 -19.04345703 14.41210938 C-17.30361397 14.91265204 -15.55673683 15.3886388 -13.80859375 15.859375 C-4.62346765 18.56764584 3.63347992 23.33620428 11.9921875 27.91845703 C12.65476563 28.27536621 13.31734375 28.63227539 14 29 C15.02480469 29.5566333 15.02480469 29.5566333 16.0703125 30.12451172 C19.47680008 31.67001583 22.68839841 31.3279004 26.25 30.4375 C29.15304044 28.05285964 29.45589903 25.62733979 30 22 C28.73256153 18.12312939 27.6622923 16.4620644 24.3125 14.125 C23.549375 13.75375 22.78625 13.3825 22 13 C22.33 12.34 22.66 11.68 23 11 C27.18111999 13.508672 30.08827914 15.43311128 32 20 C32.40045555 23.80432772 32.51873159 26.08043037 30.625 29.4375 C29 31 29 31 27 31 C27 31.66 27 32.32 27 33 C20.37888394 34.36988608 16.99941741 33.66937538 11.1875 30.375 C9.77803979 29.62499257 8.36788141 28.87629574 6.95703125 28.12890625 C6.27850098 27.76168457 5.5999707 27.39446289 4.90087891 27.01611328 C-18.89458084 14.29626953 -46.54976576 8.5615316 -73.375 8.625 C-74.12557678 8.62454681 -74.87615356 8.62409363 -75.6494751 8.62362671 C-95.00248208 8.65754535 -114.28651025 10.60789979 -133.06689453 15.4206543 C-137.83551541 16.3625502 -140.92085415 16.58107854 -145.25 14.25 C-149.11852888 11.08484 -149.8001678 9.54156269 -150.4375 4.625 C-149.87516093 -0.03438085 -148.36056016 -1.78879806 -145 -5 C-108.05870515 -22.47054469 -35.66226697 -19.7080949 0 0 Z " fill="#DADADA" transform="translate(223,222)"/>
<path d="M0 0 C3.80798668 0.00317393 7.61520332 -0.02046885 11.4230957 -0.0456543 C31.54964131 -0.09869403 50.91857625 1.76375556 70.55786133 6.19067383 C71.73517822 6.45041992 72.91249512 6.71016602 74.12548828 6.9777832 C86.83021634 9.82444966 99.25482913 13.1788305 111.55786133 17.44067383 C112.25806396 17.68237305 112.9582666 17.92407227 113.6796875 18.1730957 C117.50179375 19.54131321 120.79673678 21.19934779 124.24536133 23.31567383 C125.9450535 24.04899256 127.64531869 24.78119814 129.35375977 25.49389648 C148.05495602 33.61834493 148.05495602 33.61834493 151.67504883 41.28442383 C153.02732091 46.10073534 153.32650294 50.07510104 151.11254883 54.66333008 C149.9023886 56.62378965 148.64224857 58.48475376 147.24536133 60.31567383 C146.58536133 59.98567383 145.92536133 59.65567383 145.24536133 59.31567383 C146.25447591 57.65551758 147.26359049 55.99536133 148.27270508 54.33520508 C150.36837093 49.98396313 150.42636528 46.71995611 149.05786133 42.12817383 C148.81680664 41.26836914 148.57575195 40.40856445 148.32739258 39.52270508 C146.96919951 36.75238347 146.07300159 36.45732756 143.24536133 35.31567383 C142.26567383 34.7665332 141.28598633 34.21739258 140.27661133 33.65161133 C78.89847635 -0.67284886 -7.15062655 -7.83993614 -74.75463867 10.31567383 C-84.42202451 13.21365121 -84.42202451 13.21365121 -91.06713867 20.50317383 C-92.06999055 24.60574968 -91.92028317 28.25067306 -90.75463867 32.31567383 C-88.46264464 35.27618257 -88.46264464 35.27618257 -85.75463867 37.31567383 C-85.09463867 37.97567383 -84.43463867 38.63567383 -83.75463867 39.31567383 C-77.73507797 41.27964143 -72.00684085 39.26076668 -66.06713867 37.81567383 C-64.00244343 37.3189242 -61.93608851 36.8290082 -59.86791992 36.34692383 C-58.95824463 36.12584961 -58.04856934 35.90477539 -57.11132812 35.67700195 C-54.75463867 35.31567383 -54.75463867 35.31567383 -51.75463867 36.31567383 C-55.71132746 38.0500099 -59.58909603 39.01447742 -63.81713867 39.87817383 C-68.38317903 40.79630969 -68.38317903 40.79630969 -72.90698242 41.89379883 C-75.05993747 42.38538264 -77.04729402 42.48427533 -79.25463867 42.50317383 C-80.38385742 42.52444336 -80.38385742 42.52444336 -81.53588867 42.54614258 C-84.0032804 42.28984661 -85.61820123 41.54412536 -87.75463867 40.31567383 C-87.75463867 39.65567383 -87.75463867 38.99567383 -87.75463867 38.31567383 C-88.65182617 38.03723633 -88.65182617 38.03723633 -89.56713867 37.75317383 C-92.75856479 35.65595095 -93.7464405 32.85877027 -94.75463867 29.31567383 C-95.53610752 23.94307549 -94.31621652 20.80414786 -91.62963867 16.30786133 C-85.86377564 10.18163186 -78.91131725 8.23561431 -70.87963867 6.62817383 C-69.95022461 6.42901367 -69.02081055 6.22985352 -68.06323242 6.0246582 C-65.29703241 5.43631022 -62.52760247 4.8712951 -59.75463867 4.31567383 C-59.03144943 4.15869522 -58.30826019 4.00171661 -57.56315613 3.83998108 C-51.38369747 2.53190216 -45.27060208 1.72348484 -38.97729492 1.21020508 C-37.94999771 1.12632034 -36.9227005 1.04243561 -35.86427307 0.95600891 C-23.91774832 0.06672584 -11.9746713 -0.02079605 0 0 Z " fill="#E1E1E1" transform="translate(148.754638671875,92.684326171875)"/>
<path d="M0 0 C2.45937305 0.00534435 4.91856229 0.00003648 7.37792969 -0.00634766 C20.79406511 -0.01583262 33.0948494 0.75159423 46.09667969 4.38037109 C47.18207031 4.66783203 48.26746094 4.95529297 49.38574219 5.25146484 C59.68392611 8.06564637 69.38766676 12.07579815 78.90917969 16.88037109 C79.5744165 17.21544678 80.23965332 17.55052246 80.92504883 17.89575195 C95.02788244 25.10933721 107.37594149 33.54940781 119.03027344 44.31005859 C120.96581168 46.17145727 120.96581168 46.17145727 123.09667969 47.13037109 C123.09667969 47.79037109 123.09667969 48.45037109 123.09667969 49.13037109 C123.75667969 49.13037109 124.41667969 49.13037109 125.09667969 49.13037109 C124.76667969 49.79037109 124.43667969 50.45037109 124.09667969 51.13037109 C123.46503906 50.60830078 122.83339844 50.08623047 122.18261719 49.54833984 C119.72226789 47.52404669 117.2554338 45.5080736 114.78222656 43.49951172 C113.65725311 42.58571521 112.53355591 41.6703453 111.41113281 40.75341797 C94.04504363 26.60990203 75.31694147 16.67026485 54.04443359 9.76660156 C52.28748474 9.19269724 50.54091998 8.58723605 48.79589844 7.97802734 C31.12874819 2.26155016 11.8322259 1.48763012 -6.59814453 2.06103516 C-8.55469798 2.1198851 -10.51233052 2.14094509 -12.46972656 2.15380859 C-28.6423911 2.66974636 -45.55710898 7.34312455 -60.55957031 13.24755859 C-62.90332031 14.13037109 -62.90332031 14.13037109 -64.90332031 14.13037109 C-64.90332031 13.47037109 -64.90332031 12.81037109 -64.90332031 12.13037109 C-55.56245519 8.52534225 -46.23608283 5.54081002 -36.46582031 3.31787109 C-35.56782715 3.11137939 -34.66983398 2.9048877 -33.74462891 2.69213867 C-22.48158173 0.22140758 -11.48160141 -0.02965054 0 0 Z " fill="#D2D2D2" transform="translate(171.9033203125,-0.13037109375)"/>
<path d="M0 0 C0.81098145 0.16258301 1.62196289 0.32516602 2.45751953 0.49267578 C16.57814464 3.32833962 30.06362384 7.38943975 43.5 12.5625 C44.59441406 12.98366089 44.59441406 12.98366089 45.7109375 13.41333008 C52.2673515 15.99731971 58.47532848 18.98441798 64.4375 22.75 C70.47699825 26.15047743 76.41261544 25.69997021 83 24 C81.0751651 26.76695017 79.71891864 27.06784722 76.375 27.875 C68.67525417 28.5015616 62.62588787 24.86217498 56.0625 21.25 C43.66739555 14.44481375 30.74164979 9.82629953 16.96484375 6.7265625 C14 6 14 6 13 5 C11.69234461 4.66841328 10.3713868 4.38890014 9.046875 4.1328125 C8.21043457 3.97079346 7.37399414 3.80877441 6.51220703 3.6418457 C5.60067871 3.47128662 4.68915039 3.30072754 3.75 3.125 C2.34210205 2.86046021 2.34210205 2.86046021 0.90576172 2.59057617 C-5.67071158 1.37865898 -12.25852613 0.2821769 -18.875 -0.6875 C-19.6680957 -0.80657715 -20.46119141 -0.9256543 -21.27832031 -1.04833984 C-34.30523899 -2.88397519 -47.35783805 -3.16448573 -60.48803711 -3.13037109 C-62.93154115 -3.12501307 -65.37486086 -3.13035356 -67.81835938 -3.13671875 C-87.00095549 -3.2761899 -87.00095549 -3.2761899 -105.88671875 -0.40234375 C-108.29460238 0.05608881 -110.55455327 0.06424116 -113 0 C-113 -0.66 -113 -1.32 -113 -2 C-108.87515006 -2.48046411 -104.75009346 -2.95913156 -100.625 -3.4375 C-99.46871094 -3.57220703 -98.31242187 -3.70691406 -97.12109375 -3.84570312 C-93.74803637 -4.23636796 -90.37429329 -4.6201685 -87 -5 C-86.09427246 -5.10368896 -85.18854492 -5.20737793 -84.25537109 -5.31420898 C-56.66251437 -8.3068858 -27.08433366 -5.66418353 0 0 Z " fill="#D0D0D0" transform="translate(211,129)"/>
<path d="M0 0 C1.83751831 0.20580688 1.83751831 0.20580688 3.7121582 0.41577148 C6.13786686 0.68910658 8.56325533 0.96530136 10.98828125 1.24462891 C13.87647071 1.57510769 16.76565311 1.89071609 19.65625 2.19921875 C21.1042583 2.36116193 22.55218459 2.52384134 24 2.6875 C25.83111328 2.89052734 25.83111328 2.89052734 27.69921875 3.09765625 C28.56160156 3.27167969 29.42398438 3.44570312 30.3125 3.625 C30.8075 4.615 30.8075 4.615 31.3125 5.625 C32.93734042 5.88403253 34.56474121 6.13161808 36.19873047 6.32470703 C54.2675413 8.89165521 72.05540091 17.13847263 87.6875 26.25 C92.21427257 28.82219501 95.14281992 29.35056913 100.3125 28.625 C103.15441301 27.78010694 104.08936699 26.88945393 106 24.625 C107.8548331 20.38538148 108.05431277 16.21004904 108.3125 11.625 C110.80511855 15.36392783 110.50972209 17.03905517 109.921875 21.3359375 C108.75474108 25.72017134 106.08865659 28.27757086 102.5 31 C95.88117514 32.89109282 91.27445194 31.53681486 85.46459961 28.32324219 C84.2755603 27.6372998 84.2755603 27.6372998 83.0625 26.9375 C81.37299741 26.00824922 79.68159378 25.08244616 77.98828125 24.16015625 C77.17955566 23.71687988 76.37083008 23.27360352 75.53759766 22.81689453 C59.55092956 14.25348509 40.94849833 9.42980987 23.3125 5.625 C22.59094727 5.46902344 21.86939453 5.31304687 21.12597656 5.15234375 C2.23019202 1.284327 -17.47523701 1.40383774 -36.6875 0.625 C-36.6875 0.295 -36.6875 -0.035 -36.6875 -0.375 C-34.91727479 -0.5480063 -33.14626206 -0.71295315 -31.375 -0.875 C-30.38886719 -0.9678125 -29.40273437 -1.060625 -28.38671875 -1.15625 C-18.7969376 -1.72333315 -9.53515506 -1.09377095 0 0 Z " fill="#D3D3D3" transform="translate(166.6875,178.375)"/>
<path d="M0 0 C0 0.33 0 0.66 0 1 C-0.73412109 1.10022461 -1.46824219 1.20044922 -2.22460938 1.30371094 C-16.01089472 3.20720243 -29.621244 5.09104806 -43 9 C-44.39605469 9.38478516 -44.39605469 9.38478516 -45.8203125 9.77734375 C-51.26332655 11.39624664 -54.31975286 13.19958811 -57.3125 18.1875 C-58.31535188 22.29007585 -58.1656445 25.93499924 -57 30 C-54.70800597 32.96050874 -54.70800597 32.96050874 -52 35 C-51.34 35.66 -50.68 36.32 -50 37 C-43.9804393 38.9639676 -38.25220218 36.94509286 -32.3125 35.5 C-30.24780476 35.00325037 -28.18144983 34.51333437 -26.11328125 34.03125 C-25.20360596 33.81017578 -24.29393066 33.58910156 -23.35668945 33.36132812 C-21 33 -21 33 -18 34 C-21.95668879 35.73433607 -25.83445736 36.69880359 -30.0625 37.5625 C-34.62854035 38.48063586 -34.62854035 38.48063586 -39.15234375 39.578125 C-41.3052988 40.06970882 -43.29265535 40.1686015 -45.5 40.1875 C-46.62921875 40.20876953 -46.62921875 40.20876953 -47.78125 40.23046875 C-50.24864173 39.97417278 -51.86356256 39.22845153 -54 38 C-54 37.34 -54 36.68 -54 36 C-54.8971875 35.7215625 -54.8971875 35.7215625 -55.8125 35.4375 C-59.00392612 33.34027712 -59.99180183 30.54309644 -61 27 C-61.78146885 21.62740166 -60.56157784 18.48847403 -57.875 13.9921875 C-52.10913697 7.86595803 -45.15667858 5.91994049 -37.125 4.3125 C-36.19558594 4.11333984 -35.26617187 3.91417969 -34.30859375 3.70898438 C-31.54254951 3.12066953 -28.77233495 2.55783129 -26 2 C-25.10289307 1.81381104 -24.20578613 1.62762207 -23.28149414 1.43579102 C-18.92476973 0.54002731 -14.62266315 -0.28188538 -10.1875 -0.6875 C-9.31480469 -0.77386719 -8.44210938 -0.86023438 -7.54296875 -0.94921875 C-4.87835826 -1.0024291 -2.58566083 -0.61740196 0 0 Z " fill="#CFCFCF" transform="translate(115,95)"/>
<path d="M0 0 C3 1 3 1 4.2890625 3.08203125 C4.72992187 3.98308594 5.17078125 4.88414062 5.625 5.8125 C9.08647121 12.42699449 13.39302726 18.14579268 18 24 C18.73089844 24.93714844 19.46179688 25.87429688 20.21484375 26.83984375 C24.0144376 31.68310275 24.0144376 31.68310275 28.23046875 36.15625 C30 38 30 38 30 40 C30.87591797 40.37511719 30.87591797 40.37511719 31.76953125 40.7578125 C34.30057681 42.16739654 35.7477807 43.72675104 37.6875 45.875 C45.56084308 53.97179355 55.34192284 60.226736 65 66 C66.8125 67.6875 66.8125 67.6875 68 69 C64.09638104 68.44332194 61.67815017 67.37536614 58.5 65.0625 C57.63761719 64.43601562 56.77523437 63.80953125 55.88671875 63.1640625 C38.57546183 50.18647612 38.57546183 50.18647612 33 45 C33 44.34 33 43.68 33 43 C32.34 43 31.68 43 31 43 C31 42.34 31 41.68 31 41 C30.34 41 29.68 41 29 41 C29 40.34 29 39.68 29 39 C28.34 39 27.68 39 27 39 C25.56187327 37.43059199 24.1996995 35.79125965 22.875 34.125 C22.06933594 33.114375 21.26367188 32.10375 20.43359375 31.0625 C19.63050781 30.051875 18.82742187 29.04125 18 28 C17.31035156 27.175 16.62070312 26.35 15.91015625 25.5 C9.56116711 17.85606852 3.4365714 9.38982387 0 0 Z " fill="#DFDFDF" transform="translate(20,256)"/>
<path d="M0 0 C-3 2 -3 2 -5.5625 3.375 C-8.28109778 5.18739852 -9.07767829 5.89764516 -10 9 C-10.51966218 13.60272217 -10.72673512 16.62982705 -7.9375 20.4375 C-4.56071908 23.38320251 -2.35447789 24.08108632 2 24 C6.2863353 23.29296396 10.47383194 22.23700426 14.6875 21.1875 C26.1191698 18.47511115 37.28668574 16.77465476 49 16 C48.67 16.66 48.34 17.32 48 18 C45.33203125 18.5625 45.33203125 18.5625 41.8125 19 C40.53890625 19.16757813 39.2653125 19.33515625 37.953125 19.5078125 C35.46386839 19.81773971 32.97432248 20.12536059 30.484375 20.4296875 C24.24424522 21.24175918 18.29788882 22.38930012 12.25 24.125 C-1.42518262 27.88816033 -1.42518262 27.88816033 -6.87109375 25.01171875 C-10.42447651 22.25933834 -12.68641135 19.27657212 -13.30078125 14.81640625 C-13.32545885 10.07008034 -13.21307701 6.7670558 -10 3 C-6.58511082 0.39390036 -4.27788797 -0.36667611 0 0 Z " fill="#DEDEDE" transform="translate(79,162)"/>
<path d="M0 0 C64.22585345 -0.79623888 64.22585345 -0.79623888 91 14 C86.41060271 15.48254252 83.03988252 13.85480953 78.6875 12.25 C70.51468092 9.37985259 62.55381853 7.448317 54 6 C53.01 5.81824219 52.02 5.63648438 51 5.44921875 C34.04912316 2.43214692 17.18815242 1.50973906 0 1 C0 0.67 0 0.34 0 0 Z " fill="#C0C0C0" transform="translate(132,208)"/>
<path d="M0 0 C1.53059747 0.00503112 3.06119657 0.00959114 4.59179688 0.01367188 C8.29039911 0.02453576 11.98893864 0.04170899 15.6875 0.0625 C15.6875 0.3925 15.6875 0.7225 15.6875 1.0625 C14.65085205 1.07651855 14.65085205 1.07651855 13.59326172 1.09082031 C-5.33105117 1.40751923 -23.60328118 3.13432194 -42.3125 6.0625 C-43.23240723 6.20478027 -44.15231445 6.34706055 -45.10009766 6.49365234 C-51.77862793 7.55133813 -57.47960308 8.46305421 -63.3125 12.0625 C-64.3025 12.0625 -65.2925 12.0625 -66.3125 12.0625 C-61.75807678 5.82125337 -55.59304503 5.35812783 -48.3125 4.0625 C-47.24781494 3.86527344 -47.24781494 3.86527344 -46.16162109 3.6640625 C-43.88056171 3.24309659 -41.59743942 2.83684758 -39.3125 2.4375 C-38.26509644 2.2526001 -38.26509644 2.2526001 -37.1965332 2.06396484 C-24.843805 0.02048641 -12.47933458 -0.07232419 0 0 Z " fill="#D9D9D9" transform="translate(141.3125,208.9375)"/>
<path d="M0 0 C0 0.33 0 0.66 0 1 C-2.64 1 -5.28 1 -8 1 C-8 1.66 -8 2.32 -8 3 C-9.04003174 3.10489746 -9.04003174 3.10489746 -10.10107422 3.21191406 C-28.35019308 5.07258379 -28.35019308 5.07258379 -46.30224609 8.72949219 C-50.63241184 9.81920277 -54.53903065 10.16779262 -59 10 C-55.34014278 7.89792816 -51.44224504 6.97746612 -47.375 6 C-46.65280273 5.82484863 -45.93060547 5.64969727 -45.18652344 5.46923828 C-43.75562754 5.12514341 -42.32400264 4.78406338 -40.89160156 4.44628906 C-39.40230729 4.0949171 -37.91550173 3.73299587 -36.4296875 3.3671875 C-30.66162559 2.06472191 -24.81117461 1.48376518 -18.9375 0.875 C-17.67824707 0.74327393 -17.67824707 0.74327393 -16.39355469 0.60888672 C-10.90313205 0.07620165 -5.51597757 -0.07776806 0 0 Z " fill="#C8C8C8" transform="translate(134,152)"/>
<path d="M0 0 C0.66 0.33 1.32 0.66 2 1 C-0.22124461 3.71969383 -2.44425355 6.43786793 -4.671875 9.15234375 C-6.00456186 10.78242549 -7.33140746 12.41741559 -8.640625 14.06640625 C-9.71777994 15.41284993 -10.85228749 16.71317082 -12 18 C-12.66 18 -13.32 18 -14 18 C-14.66 19.32 -15.32 20.64 -16 22 C-16.66 22 -17.32 22 -18 22 C-18 22.66 -18 23.32 -18 24 C-18.66 24 -19.32 24 -20 24 C-20 24.66 -20 25.32 -20 26 C-21.69274284 27.56432787 -23.45569852 29.05328572 -25.25 30.5 C-26.71179688 31.69109375 -26.71179688 31.69109375 -28.203125 32.90625 C-30.44894762 34.58748034 -32.4465803 35.88135899 -35 37 C-33.76477497 33.29432491 -32.39349305 32.53984944 -29.3125 30.1875 C-18.28696124 21.3699365 -8.61690176 11.17005784 0 0 Z " fill="#DBDBDB" transform="translate(313,277)"/>
<path d="M0 0 C0.33 0 0.66 0 1 0 C1.08636719 0.59167969 1.17273437 1.18335937 1.26171875 1.79296875 C2.2545205 7.37634007 3.47848804 10.26975263 8 14 C8.66 14.66 9.32 15.32 10 16 C16.0195607 17.9639676 21.74779782 15.94509286 27.6875 14.5 C29.75219524 14.00325037 31.81855017 13.51333437 33.88671875 13.03125 C34.79639404 12.81017578 35.70606934 12.58910156 36.64331055 12.36132812 C39 12 39 12 42 13 C38.04331121 14.73433607 34.16554264 15.69880359 29.9375 16.5625 C25.37145965 17.48063586 25.37145965 17.48063586 20.84765625 18.578125 C18.6947012 19.06970882 16.70734465 19.1686015 14.5 19.1875 C13.7471875 19.20167969 12.994375 19.21585938 12.21875 19.23046875 C9.75135827 18.97417278 8.13643744 18.22845153 6 17 C6 16.34 6 15.68 6 15 C5.38125 14.773125 4.7625 14.54625 4.125 14.3125 C1.23941129 12.53022462 0.85327524 11.27088842 0 8 C-0.14983588 5.30794876 -0.09155081 2.70074884 0 0 Z " fill="#D3D3D3" transform="translate(55,116)"/>
<path d="M0 0 C0 0.33 0 0.66 0 1 C-1.06347656 1.00386719 -1.06347656 1.00386719 -2.1484375 1.0078125 C-18.90678487 1.61646918 -36.0821984 5.98779591 -51.65625 12.1171875 C-54 13 -54 13 -56 13 C-56 12.34 -56 11.68 -56 11 C-37.54089688 3.95989645 -19.89639867 -1.09320872 0 0 Z " fill="#CDCDCD" transform="translate(163,1)"/>
<path d="M0 0 C3 1 3 1 4.2890625 3.08203125 C4.72992187 3.98308594 5.17078125 4.88414062 5.625 5.8125 C8.52696269 11.38426837 12.0008 16.22383579 15.8515625 21.17578125 C18.03757923 24.04939961 20.02703524 26.97806077 22 30 C12.5031727 26.07100287 4.66286146 11.26705293 0.7734375 2.11328125 C0.51820312 1.41589844 0.26296875 0.71851563 0 0 Z " fill="#C7C7C7" transform="translate(20,256)"/>
<path d="M0 0 C-3.88323823 2.07778461 -7.47352769 3.85960738 -11.75 5 C-15.33262051 6.10234477 -16.73114153 7.05888717 -19 10 C-20.25436187 12.63222962 -20.25436187 12.63222962 -21 15 C-21.66 15 -22.32 15 -23 15 C-23 16.98 -23 18.96 -23 21 C-23.33 21 -23.66 21 -24 21 C-24.56522003 15.5738877 -23.7133163 12.3723763 -20.6171875 7.859375 C-15.68109495 2.18406086 -7.49213441 -2.24764032 0 0 Z " fill="#C9C9C9" transform="translate(78,101)"/>
<path d="M0 0 C8.29945538 2.59357981 14.66592887 9.38476709 20.8984375 15.14453125 C22.86145871 17.0377009 22.86145871 17.0377009 25 18 C25 18.66 25 19.32 25 20 C25.66 20 26.32 20 27 20 C26.67 20.66 26.34 21.32 26 22 C25.37996094 21.48953125 24.75992187 20.9790625 24.12109375 20.453125 C19.74614743 16.86146601 15.36554561 13.28177769 10.9296875 9.765625 C10.24720947 9.22389648 9.56473145 8.68216797 8.86157227 8.12402344 C7.5021237 7.04657177 6.14064776 5.97167287 4.77709961 4.89941406 C3.16665047 3.62208208 1.58065941 2.31401646 0 1 C0 0.67 0 0.34 0 0 Z " fill="#DDDDDD" transform="translate(270,29)"/>
<path d="M0 0 C6.71828758 -0.38555452 12.89822428 1.06407595 19.4375 2.5 C21.1071582 2.85771484 21.1071582 2.85771484 22.81054688 3.22265625 C25.54180031 3.80876214 28.27146868 4.40137252 31 5 C31 5.33 31 5.66 31 6 C25.81180083 6.18866179 21.46499152 5.75808048 16.44140625 4.5 C12.78282788 3.75072315 9.10819524 3.60591745 5.3828125 3.44140625 C2.63327982 2.93206659 1.72669325 2.14407274 0 0 Z " fill="#DEDEDE" transform="translate(178,154)"/>
<path d="M0 0 C5.6666765 -0.29785422 10.08825729 0.68918591 15.4375 2.5 C16.16904297 2.73847656 16.90058594 2.97695312 17.65429688 3.22265625 C19.4392116 3.80596172 21.22005557 4.40169935 23 5 C22.67 5.99 22.34 6.98 22 8 C19.08207398 7.04536988 16.16567605 6.08645759 13.25 5.125 C12.0125 4.72087891 12.0125 4.72087891 10.75 4.30859375 C9.95078125 4.04433594 9.1515625 3.78007812 8.328125 3.5078125 C7.5949707 3.26691895 6.86181641 3.02602539 6.10644531 2.77783203 C3.97915237 1.99230175 2.00747054 1.05134327 0 0 Z " fill="#C0C0C0" transform="translate(206,187)"/>
<path d="M0 0 C0.92619141 0.54140625 0.92619141 0.54140625 1.87109375 1.09375 C9.53934346 5.29553066 15.50120527 6.19323735 24 4 C22.0751651 6.76695017 20.71891864 7.06784722 17.375 7.875 C11.51982252 8.41514552 6.38440046 6.45390272 1.4375 3.4375 C0.963125 2.963125 0.48875 2.48875 0 2 C0 1.34 0 0.68 0 0 Z " fill="#D7D7D7" transform="translate(270,149)"/>
<path d="M0 0 C2.5625718 -0.02710123 5.12485365 -0.04688771 7.6875 -0.0625 C8.40873047 -0.07087891 9.12996094 -0.07925781 9.87304688 -0.08789062 C13.71555382 -0.10543632 17.26639526 0.06475779 21 1 C21 1.33 21 1.66 21 2 C13.48751716 2.94450945 6.51248284 2.94450945 -1 2 C-0.67 1.34 -0.34 0.68 0 0 Z " fill="#CBCBCB" transform="translate(166,93)"/>
<path d="M0 0 C-0.639375 0.309375 -1.27875 0.61875 -1.9375 0.9375 C-3.93610821 1.8345163 -3.93610821 1.8345163 -5 3 C-7.07473748 3.40146756 -9.16057103 3.74627476 -11.25 4.0625 C-12.38953125 4.23910156 -13.5290625 4.41570312 -14.703125 4.59765625 C-17.51890262 4.94128788 -20.16973183 5.07980079 -23 5 C-19.64414347 2.76276232 -17.11888374 2.20398187 -13.1875 1.375 C-11.98480469 1.11460937 -10.78210938 0.85421875 -9.54296875 0.5859375 C-6.27837314 0.04603745 -3.2995537 -0.11116414 0 0 Z " fill="#D0D0D0" transform="translate(117,210)"/>
<path d="M0 0 C0.88751953 0.59748047 0.88751953 0.59748047 1.79296875 1.20703125 C6.76981011 4.54849799 6.76981011 4.54849799 11.875 7.6875 C13.90651103 8.94225681 15.40359443 10.23555173 17 12 C12.84316735 11.44028286 10.22467722 10.09822127 6.8125 7.6875 C5.95269531 7.09324219 5.09289062 6.49898438 4.20703125 5.88671875 C2.01502983 4.01284851 1.04794707 2.65206716 0 0 Z " fill="#CDCDCD" transform="translate(71,313)"/>
<path d="M0 0 C0.66 0.33 1.32 0.66 2 1 C-2.56630734 5.87072783 -7.74976539 9.89156398 -13 14 C-13 13.01 -13 12.02 -13 11 C-10.6640625 8.80859375 -10.6640625 8.80859375 -7.625 6.4375 C-3.67969922 3.36808795 -3.67969922 3.36808795 0 0 Z " fill="#E4E4E4" transform="translate(292,300)"/>
<path d="M0 0 C2.53433163 1.91787258 4.70677253 3.58948155 6.5625 6.1875 C8.26664484 8.33620437 9.33318782 8.63216384 12 9 C12 9.66 12 10.32 12 11 C7.5894051 10.49593201 5.13906582 9.13906582 2 6 C0.6875 2.75 0.6875 2.75 0 0 Z " fill="#D5D5D5" transform="translate(66,177)"/>
<path d="M0 0 C7.50769231 0.61538462 7.50769231 0.61538462 10 2.5625 C10.33 3.036875 10.66 3.51125 11 4 C9.02 4.99 9.02 4.99 7 6 C5.83054208 5.19152271 4.66449539 4.37810888 3.5 3.5625 C2.8503125 3.11003906 2.200625 2.65757812 1.53125 2.19140625 C1.0259375 1.79824219 0.520625 1.40507812 0 1 C0 0.67 0 0.34 0 0 Z " fill="#181818" transform="translate(62,306)"/>
<path d="M0 0 C0.66 0.66 1.32 1.32 2 2 C-1.3 5.3 -4.6 8.6 -8 12 C-8.33 11.34 -8.66 10.68 -9 10 C-8.34 9.01 -7.68 8.02 -7 7 C-6.34 7 -5.68 7 -5 7 C-4.34 5.68 -3.68 4.36 -3 3 C-2.34 3 -1.68 3 -1 3 C-0.67 2.01 -0.34 1.02 0 0 Z " fill="#C4C4C4" transform="translate(54,46)"/>
<path d="M0 0 C0.66 0.66 1.32 1.32 2 2 C0.02 4.64 -1.96 7.28 -4 10 C-4.66 9.67 -5.32 9.34 -6 9 C-5.34 7.35 -4.68 5.7 -4 4 C-3.34 4 -2.68 4 -2 4 C-1.34 2.68 -0.68 1.36 0 0 Z " fill="#141414" transform="translate(313,273)"/>
<path d="M0 0 C5.13503344 0.64187918 9.9943454 1.68272247 15 3 C15 3.33 15 3.66 15 4 C12.87465341 3.85930804 10.74972471 3.71229079 8.625 3.5625 C7.44164062 3.48128906 6.25828125 3.40007813 5.0390625 3.31640625 C2 3 2 3 0 2 C0 1.34 0 0.68 0 0 Z " fill="#E5E5E5" transform="translate(201,1)"/>
<path d="M0 0 C0.66 0 1.32 0 2 0 C2 0.66 2 1.32 2 2 C2.99 2.33 3.98 2.66 5 3 C6.84499398 4.87617698 8.3683599 6.92737609 10 9 C9.67 9.66 9.34 10.32 9 11 C7.49403892 9.54782324 5.99537896 8.08807139 4.5 6.625 C3.6646875 5.81289063 2.829375 5.00078125 1.96875 4.1640625 C0 2 0 2 0 0 Z " fill="#DDDDDD" transform="translate(297,51)"/>
<path d="M0 0 C0.33 0 0.66 0 1 0 C1.18175781 0.90492187 1.18175781 0.90492187 1.3671875 1.828125 C1.53476562 2.62734375 1.70234375 3.4265625 1.875 4.25 C2.03742187 5.03890625 2.19984375 5.8278125 2.3671875 6.640625 C2.99150075 8.96831144 3.84838542 10.89031952 5 13 C4.01 13 3.02 13 2 13 C-0.24828052 8.50343896 -0.16682272 4.92127034 0 0 Z " fill="#EBEBEB" transform="translate(55,116)"/>
<path d="M0 0 C7.42857143 -0.28571429 7.42857143 -0.28571429 11 2 C5.62694301 2.96891192 5.62694301 2.96891192 3 3 C1 1.5625 1 1.5625 0 0 Z " fill="#BCBCBC" transform="translate(178,154)"/>
<path d="M0 0 C-1.47692308 4.67692308 -1.47692308 4.67692308 -4.125 6.3125 C-5.053125 6.6528125 -5.053125 6.6528125 -6 7 C-6 4 -6 4 -4.125 1.8125 C-2 0 -2 0 0 0 Z " fill="#0B0B0B" transform="translate(54,51)"/>
<path d="M0 0 C3 1 3 1 4.16796875 3.06640625 C4.50441406 3.89011719 4.84085937 4.71382813 5.1875 5.5625 C5.53167969 6.38878906 5.87585938 7.21507813 6.23046875 8.06640625 C6.48441406 8.70449219 6.73835938 9.34257813 7 10 C6.34 10 5.68 10 5 10 C3.7109375 8.3203125 3.7109375 8.3203125 2.375 6.125 C1.92898438 5.40570313 1.48296875 4.68640625 1.0234375 3.9453125 C0 2 0 2 0 0 Z " fill="#C7C7C7" transform="translate(321,82)"/>
<path d="M0 0 C3 1 3 1 4.75 3.375 C6 6 6 6 5 9 C4.16396622 7.68921847 3.3312426 6.37632511 2.5 5.0625 C2.0359375 4.33160156 1.571875 3.60070312 1.09375 2.84765625 C0 1 0 1 0 0 Z " fill="#E0E0E0" transform="translate(25,265)"/>
</svg>
