<?xml version="1.0" standalone="no"?>
<!DOCTYPE svg PUBLIC "-//W3C//DTD SVG 20010904//EN"
 "http://www.w3.org/TR/2001/REC-SVG-20010904/DTD/svg10.dtd">
<svg version="1.0" xmlns="http://www.w3.org/2000/svg"
 width="300.000000pt" height="300.000000pt" viewBox="0 0 300.000000 300.000000"
 preserveAspectRatio="xMidYMid meet">
<metadata>
Created by potrace 1.10, written by Peter Selinger 2001-2011
</metadata>
<g transform="translate(0.000000,300.000000) scale(0.100000,-0.100000)"
fill="#000000" stroke="none">
<path d="M1305 2974 c-337 -45 -613 -182 -856 -424 -349 -348 -495 -810 -414
-1310 19 -115 79 -299 133 -407 145 -287 404 -540 692 -677 412 -195 899 -191
1300 9 205 103 416 281 549 465 72 98 168 289 206 405 97 302 96 633 -1 932
-122 374 -417 708 -774 877 -265 125 -549 169 -835 130z m385 -38 c121 -13
395 -98 480 -150 19 -11 41 -21 49 -23 8 -1 17 -6 20 -11 3 -5 33 -27 66 -48
33 -22 74 -51 90 -66 17 -14 51 -44 77 -65 26 -21 81 -79 123 -128 42 -50 87
-102 100 -117 13 -16 21 -28 19 -28 -2 0 10 -21 26 -47 32 -52 99 -189 105
-213 2 -8 13 -40 25 -70 63 -168 91 -399 72 -592 -19 -189 -24 -214 -71 -348
-35 -104 -85 -211 -123 -267 -15 -23 -28 -44 -28 -47 0 -5 -52 -77 -86 -119
-8 -9 -14 -20 -14 -22 0 -3 -16 -19 -35 -36 -19 -17 -32 -35 -29 -40 3 -5 0
-8 -7 -7 -7 2 -23 -13 -36 -32 -13 -19 -27 -34 -29 -32 -3 2 -26 -16 -52 -39
-58 -52 -170 -128 -219 -149 -13 -5 -23 -15 -23 -21 0 -6 -7 -8 -16 -5 -8 3
-12 2 -9 -4 3 -6 -1 -10 -10 -10 -9 0 -33 -9 -55 -20 -48 -25 -243 -90 -268
-90 -10 0 -22 -3 -25 -7 -4 -3 -17 -7 -30 -8 -12 -1 -67 -8 -121 -15 -93 -12
-268 -9 -366 6 -19 3 -46 7 -60 8 -69 9 -214 56 -333 110 -32 14 -61 26 -66
26 -4 0 -18 9 -31 20 -12 11 -26 17 -30 15 -5 -3 -10 -2 -12 2 -3 8 -123 93
-131 93 -14 0 -227 208 -227 222 0 5 -5 6 -10 3 -6 -3 -10 0 -10 8 0 8 -7 21
-16 28 -9 7 -37 45 -62 84 -25 38 -49 73 -54 76 -5 3 -10 13 -12 21 -1 8 -9
26 -18 40 -10 14 -20 38 -24 52 -3 14 -10 26 -15 26 -5 0 -9 7 -9 16 0 9 -6
28 -14 42 -53 100 -105 374 -106 551 0 107 30 300 64 411 51 166 142 343 240
468 45 58 188 203 238 242 165 129 357 226 523 265 39 9 77 19 85 23 16 6 29
8 104 17 28 3 52 8 55 10 5 5 267 -2 331 -9z"/>
<path d="M1070 2240 c-122 -8 -152 -12 -330 -44 -100 -18 -199 -48 -235 -72
-37 -24 -75 -94 -77 -141 -2 -56 35 -128 82 -160 55 -35 105 -39 187 -15 211
65 666 91 908 52 33 -5 78 -11 100 -14 22 -3 65 -8 95 -12 30 -4 60 -10 65
-14 6 -4 35 -13 65 -19 69 -15 294 -92 298 -102 2 -4 10 -5 18 -2 8 3 14 1 14
-4 0 -4 34 -26 76 -47 56 -29 87 -39 120 -38 116 1 204 115 173 226 -11 41
-73 116 -95 116 -8 0 -14 4 -14 8 0 5 -19 16 -42 27 -24 10 -45 21 -48 25 -8
12 -241 102 -266 104 -13 0 -24 4 -24 7 0 4 -15 10 -32 14 -18 4 -35 9 -38 10
-8 3 -46 12 -140 34 -208 49 -610 77 -860 61z m570 -56 c245 -26 473 -83 685
-172 132 -55 216 -103 244 -138 47 -60 34 -144 -30 -196 -56 -45 -103 -42
-209 15 -291 156 -698 237 -1125 224 -241 -8 -342 -22 -518 -69 -65 -17 -84
-19 -115 -10 -101 31 -139 155 -70 230 32 34 47 40 154 68 266 69 617 86 984
48z"/>
<path d="M1035 1724 c-16 -2 -66 -9 -110 -15 -201 -26 -374 -87 -360 -127 3
-7 1 -11 -4 -8 -12 8 -31 -40 -31 -78 0 -42 19 -98 31 -90 5 3 9 -1 9 -9 0
-28 71 -61 128 -60 28 0 58 5 65 11 27 22 335 63 476 63 233 0 499 -45 676
-114 17 -6 35 -12 40 -12 6 0 71 -31 145 -69 125 -63 138 -68 184 -63 28 2 52
10 54 16 2 6 9 11 16 11 18 0 49 40 63 81 17 46 16 53 -6 102 -22 48 -60 86
-111 112 -19 10 -69 35 -110 55 -41 21 -87 41 -103 45 -15 4 -30 11 -33 16 -3
5 -15 9 -28 9 -12 0 -26 4 -31 9 -14 14 -260 76 -375 96 -91 15 -514 29 -585
19z m570 -57 c134 -22 297 -64 411 -107 115 -43 274 -120 321 -156 66 -50 66
-154 0 -194 -47 -29 -97 -25 -158 11 -131 77 -335 151 -516 188 -165 34 -294
44 -488 38 -174 -5 -238 -14 -411 -56 -78 -19 -110 -18 -145 4 -29 19 -49 60
-49 101 0 58 35 99 102 119 80 23 236 55 323 65 112 12 502 4 610 -13z"/>
<path d="M1140 1244 c-124 -11 -376 -47 -384 -55 -6 -5 -21 -9 -35 -9 -59 0
-131 -74 -131 -133 0 -75 66 -137 146 -137 25 0 54 5 65 10 10 6 38 13 61 15
24 3 93 12 153 20 181 26 437 19 586 -16 26 -6 53 -12 60 -13 8 -2 21 -6 29
-9 8 -3 41 -13 74 -22 32 -9 84 -29 117 -44 39 -19 60 -25 63 -17 2 6 5 4 5
-4 1 -9 31 -30 71 -49 87 -40 126 -37 176 15 54 55 57 116 10 179 -24 31 -210
135 -241 135 -7 0 -15 4 -17 8 -4 11 -215 77 -288 91 -52 9 -109 17 -196 27
-65 7 -276 12 -324 8z m275 -44 c163 -15 277 -37 402 -76 126 -39 324 -134
360 -172 32 -35 32 -94 -1 -127 -45 -45 -68 -43 -190 18 -144 73 -213 98 -366
133 -119 28 -136 29 -365 28 -219 0 -252 -2 -377 -27 -177 -35 -190 -35 -222
4 -49 58 -24 137 52 159 60 17 278 50 392 59 152 12 192 12 315 1z"/>
</g>
</svg>
