<?xml version="1.0" encoding="UTF-8"?>
<svg version="1.1" xmlns="http://www.w3.org/2000/svg" width="800px" height="800px">
<path d="M0 0 C1.56047445 0.00015913 3.12095416 0.00585397 4.68139648 0.01586914 C5.5012352 0.01728409 6.32107391 0.01869904 7.16575623 0.02015686 C9.79470406 0.0257725 12.42356797 0.0383276 15.05249023 0.05102539 C16.8304838 0.05603838 18.60847869 0.06060163 20.38647461 0.06469727 C24.75434569 0.07574701 29.12215371 0.09302208 33.48999023 0.11352539 C34.71169745 3.70417522 35.7496442 7.12121688 36.36499023 10.86352539 C38.88276494 23.68303477 45.12613627 33.20682929 55.48999023 41.11352539 C56.37686523 41.81477539 57.26374023 42.51602539 58.17749023 43.23852539 C66.46494265 47.92953619 75.14850762 49.41507401 84.48999023 51.11352539 C84.48999023 62.99352539 84.48999023 74.87352539 84.48999023 87.11352539 C75.47670337 88.24018625 75.47670337 88.24018625 72.19311523 87.69555664 C71.46817871 87.57784912 70.74324219 87.4601416 69.99633789 87.33886719 C69.25174316 87.20262939 68.50714844 87.0663916 67.73999023 86.92602539 C66.95285645 86.78656494 66.16572266 86.64710449 65.35473633 86.50341797 C56.36293923 84.82952076 48.3054428 82.11679422 40.13842773 77.97680664 C39.07543457 77.43967041 38.01244141 76.90253418 36.91723633 76.34912109 C35.71574951 75.73750122 35.71574951 75.73750122 34.48999023 75.11352539 C34.49443146 75.85616135 34.49887268 76.5987973 34.50344849 77.36393738 C34.54402082 84.46528077 34.57422084 91.56658203 34.59361458 98.66800976 C34.60392115 102.31632233 34.61783014 105.96453683 34.64086914 109.61279297 C34.81191695 137.49877826 34.81191695 137.49877826 33.65405273 150.05883789 C33.5823587 150.85311691 33.51066467 151.64739594 33.4367981 152.46574402 C31.50895456 170.25059857 23.68615767 184.33349887 11.48999023 197.11352539 C10.94858398 197.74129883 10.40717773 198.36907227 9.84936523 199.01586914 C0.9647387 208.91011233 -12.06378886 213.55090933 -24.51000977 217.11352539 C-25.14680664 217.3159082 -25.78360352 217.51829102 -26.43969727 217.72680664 C-36.63484172 219.63118268 -47.79156338 218.43365853 -57.51000977 215.11352539 C-58.9853418 214.62045898 -58.9853418 214.62045898 -60.49047852 214.11743164 C-76.02387357 208.30999157 -89.38896366 196.14224478 -96.51000977 181.11352539 C-104.46474994 160.47539394 -107.07252046 140.11547181 -97.89672852 119.35571289 C-94.90734012 112.95240259 -91.56843955 106.1562944 -86.51000977 101.11352539 C-85.85000977 101.11352539 -85.19000977 101.11352539 -84.51000977 101.11352539 C-84.01500977 99.62852539 -84.01500977 99.62852539 -83.51000977 98.11352539 C-68.62434984 83.19478622 -48.09407913 77.37401155 -27.51000977 77.11352539 C-25.23291843 79.39061673 -26.02712618 84.61082674 -25.88500977 87.67602539 C-25.83997314 88.61663818 -25.79493652 89.55725098 -25.74853516 90.52636719 C-25.41196401 98.7923026 -25.7528655 106.87812549 -26.51000977 115.11352539 C-30.62726925 116.69960603 -34.72921771 118.21304841 -38.94750977 119.50805664 C-53.41147782 123.829969 -53.41147782 123.829969 -63.51000977 134.55102539 C-67.0197072 142.40041627 -66.70510951 151.84415335 -64.44750977 160.05102539 C-60.68956492 169.26405147 -53.35558478 174.19871501 -44.51000977 178.11352539 C-36.98407107 180.50881433 -29.33063674 179.9240656 -22.19750977 176.67602539 C-14.77589428 172.52808061 -10.28306766 167.19574949 -7.63500977 159.11352539 C-5.11393747 149.92278083 -5.35066953 140.33479732 -5.32055664 130.88891602 C-5.31259994 129.47050743 -5.30421089 128.05210121 -5.29542542 126.63369751 C-5.27747359 123.59724119 -5.26242196 120.56078972 -5.24964905 117.52430725 C-5.22932594 112.72617224 -5.20169351 107.92809598 -5.17297363 103.13000488 C-5.10798848 92.09081641 -5.05225674 81.05158507 -4.99698639 70.01234436 C-4.94615446 59.86897951 -4.8933661 49.72563646 -4.83246088 39.58232641 C-4.804075 34.80823731 -4.78049498 30.03415552 -4.76053619 25.26002407 C-4.74719134 22.30126193 -4.72977884 19.34253414 -4.71122551 16.38380051 C-4.70344319 15.00709776 -4.69738519 13.63038409 -4.6931324 12.25366592 C-4.68712333 10.38242877 -4.67450951 8.51121622 -4.66149902 6.64001465 C-4.65634529 5.59072029 -4.65119156 4.54142593 -4.64588165 3.46033478 C-4.42650828 -0.32873085 -3.94608623 0.12762955 0 0 Z " fill="#0D0D0D" transform="translate(189.510009765625,70.886474609375)"/>
<path d="M0 0 C1.32 0.66 2.64 1.32 4 2 C3.34 2 2.68 2 2 2 C2.00444122 2.74263596 2.00888245 3.48527191 2.01345825 4.25041199 C2.05403058 11.35175537 2.0842306 18.45305664 2.10362434 25.55448437 C2.11393091 29.20279694 2.12783991 32.85101143 2.15087891 36.49926758 C2.32187238 64.38254644 2.32187238 64.38254644 1.17578125 76.92578125 C1.10565826 77.71744186 1.03553528 78.50910248 0.96328735 79.32475281 C-0.13495015 89.51874674 -3.36807561 100.39240213 -9 109 C-9.33 108.34 -9.66 107.68 -10 107 C-9.32585878 105.15793869 -8.55871521 103.34957469 -7.75 101.5625 C-3.02936702 90.61325406 -0.89515992 80.02013146 -0.79467773 68.11523438 C-0.78477814 67.3727948 -0.77487854 66.63035522 -0.76467896 65.86541748 C-0.73340327 63.44155938 -0.70844266 61.01768176 -0.68359375 58.59375 C-0.66299481 56.9012403 -0.64199762 55.2087354 -0.62062073 53.51623535 C-0.56570341 49.08418697 -0.51616169 44.65209453 -0.46777344 40.2199707 C-0.41733539 35.68827441 -0.36176631 31.15664127 -0.30664062 26.625 C-0.19943076 17.75005409 -0.0979049 8.8750531 0 0 Z " fill="#C6C6C6" transform="translate(222,144)"/>
<path d="M0 0 C0.66 0.33 1.32 0.66 2 1 C0.56877218 2.48523642 -0.87020889 3.96300462 -2.3125 5.4375 C-3.11300781 6.26121094 -3.91351563 7.08492187 -4.73828125 7.93359375 C-7 10 -7 10 -10 11 C-10 10.34 -10 9.68 -10 9 C-9.34 9 -8.68 9 -8 9 C-7.67 8.01 -7.34 7.02 -7 6 C-5.37109375 4.39453125 -5.37109375 4.39453125 -3.4375 2.8125 C-2.79683594 2.28269531 -2.15617187 1.75289062 -1.49609375 1.20703125 C-1.00238281 0.80871094 -0.50867188 0.41039062 0 0 Z " fill="#A9A9A9" transform="translate(113,163)"/>
</svg>
