<?xml version="1.0" standalone="no"?>
<!DOCTYPE svg PUBLIC "-//W3C//DTD SVG 20010904//EN"
 "http://www.w3.org/TR/2001/REC-SVG-20010904/DTD/svg10.dtd">
<svg version="1.0" xmlns="http://www.w3.org/2000/svg"
 width="300.000000pt" height="300.000000pt" viewBox="0 0 300.000000 300.000000"
 preserveAspectRatio="xMidYMid meet">
<metadata>
Created by potrace 1.10, written by Peter Selinger 2001-2011
</metadata>
<g transform="translate(0.000000,300.000000) scale(0.100000,-0.100000)"
fill="#000000" stroke="none">
<path d="M1548 1753 l-3 -648 -24 -53 c-64 -141 -230 -193 -371 -116 -91 49
-140 135 -140 243 0 58 5 74 33 121 27 46 42 60 97 87 36 18 97 40 135 50 l70
19 3 148 3 149 -68 -6 c-161 -15 -281 -68 -383 -167 -178 -175 -220 -437 -106
-673 19 -40 53 -94 76 -119 86 -99 238 -172 381 -185 71 -7 213 33 298 82 157
92 260 250 291 445 5 36 10 203 10 372 l0 307 83 -39 c83 -40 230 -79 300 -80
l37 0 0 140 0 139 -37 6 c-113 19 -217 75 -276 147 -47 58 -85 137 -92 190
-14 97 4 88 -165 88 l-149 0 -3 -647z m260 595 c5 -7 13 -29 17 -48 34 -161
175 -305 348 -355 l57 -16 0 -95 c0 -68 -3 -94 -12 -95 -62 -5 -169 22 -271
68 -74 33 -79 34 -102 19 -14 -9 -27 -26 -30 -39 -2 -12 -6 -168 -8 -347 -3
-322 -3 -326 -30 -405 -66 -197 -204 -324 -410 -376 -84 -21 -90 -22 -167 -6
-109 21 -193 62 -266 130 -72 66 -117 145 -144 253 -50 195 -1 376 139 514 42
42 90 77 132 98 73 35 216 65 237 49 8 -6 12 -40 12 -102 0 -103 -2 -107 -69
-125 -69 -18 -153 -59 -184 -88 -15 -14 -40 -47 -55 -72 -24 -40 -27 -55 -27
-135 0 -80 3 -96 29 -142 36 -66 77 -104 150 -142 49 -26 69 -31 130 -31 92 0
155 28 218 99 86 95 82 64 86 761 2 420 6 618 14 627 14 18 191 18 206 1z"/>
</g>
</svg>
