<?xml version="1.0" standalone="no"?>
<!DOCTYPE svg PUBLIC "-//W3C//DTD SVG 20010904//EN"
 "http://www.w3.org/TR/2001/REC-SVG-20010904/DTD/svg10.dtd">
<svg version="1.0" xmlns="http://www.w3.org/2000/svg"
 width="360.000000pt" height="360.000000pt" viewBox="0 0 360.000000 360.000000"
 preserveAspectRatio="xMidYMid meet">
<metadata>
Created by potrace 1.10, written by Peter Selinger 2001-2011
</metadata>
<g transform="translate(0.000000,360.000000) scale(0.050000,-0.050000)"
fill="#000000" stroke="none">
<path d="M3650 5897 c-126 -111 -119 -18 -131 -1657 -11 -1629 -9 -1602 -120
-1728 -265 -302 -759 -97 -759 316 0 222 64 279 420 380 336 96 360 140 360
654 l0 383 -89 89 -89 90 -156 -14 c-1138 -99 -1813 -1129 -1421 -2170 416
-1109 1634 -1369 2463 -524 413 421 533 861 532 1959 0 157 7 285 15 285 8 0
72 -18 143 -39 412 -125 661 -117 764 25 l58 80 0 362 c0 483 -12 503 -350
592 -350 93 -567 316 -628 647 -55 301 -110 333 -573 333 l-368 0 -71 -63z
m829 -192 c11 -41 21 -95 21 -120 1 -344 409 -737 840 -808 l140 -23 0 -355 0
-355 -49 -12 c-122 -31 -583 74 -796 181 -73 37 -139 67 -145 67 -5 0 -10
-263 -10 -585 -1 -1187 -67 -1447 -468 -1846 -713 -710 -1837 -494 -2180 418
-366 973 245 1902 1288 1956 l130 7 10 -210 c6 -115 6 -286 0 -378 l-10 -169
-240 -72 c-421 -126 -549 -257 -550 -562 -2 -682 911 -913 1169 -296 61 147
71 406 71 1808 0 771 6 1408 13 1416 8 7 178 13 379 13 l366 0 21 -75z"/>
<path d="M3735 4275 c-10 -1609 -11 -1633 -120 -1819 -314 -535 -1145 -307
-1191 326 -24 347 166 547 636 668 189 49 180 28 180 415 l0 339 -165 -14
c-928 -81 -1500 -853 -1276 -1720 386 -1492 2431 -1266 2620 289 12 94 21 487
21 874 l0 704 191 -89 c215 -101 447 -163 674 -181 l155 -13 0 343 0 343 -65
0 c-455 0 -862 408 -945 945 l-12 75 -347 0 -348 0 -8 -1485z m563 1240 c219
-563 433 -798 847 -927 l115 -35 0 -147 c0 -131 -4 -146 -39 -146 -89 0 -325
69 -520 152 -242 104 -283 100 -383 -38 l-58 -80 0 -769 c0 -713 -3 -780 -42
-932 -341 -1340 -2220 -1219 -2292 148 -35 659 379 1156 1025 1232 l109 13 0
-158 c-1 -187 -4 -192 -120 -226 -583 -165 -840 -661 -593 -1147 359 -707
1208 -646 1476 105 l47 130 5 1410 c3 776 10 1421 15 1435 18 51 388 33 408
-20z"/>
</g>
</svg>
